<svg xmlns="http://www.w3.org/2000/svg" enable-background="new 0 0 512 512" viewBox="0 0 512 512" id="cart">
  <path fill="#051356" d="M406.87,298.423H207.347l-2.519-15.528h211.268c7.196,0,13.395-5.078,14.82-12.126l31.869-158.089
	c0.893-4.436-0.251-9.041-3.107-12.547c-2.864-3.506-7.144-5.543-11.668-5.557l-273.871-0.846l-5.124-31.584
	c-1.188-7.321-7.513-12.694-14.923-12.694H86.84c-20.909,0-37.921,16.96-37.921,37.803c0,20.835,17.012,37.788,37.921,37.788h11.277
	l37.95,236.499c1.173,7.336,7.499,12.724,14.923,12.724h255.88c20.687,0,37.522-17.019,37.522-37.935
	C444.392,315.427,427.557,298.423,406.87,298.423z M191.952,203.531l50.83-0.026l4.682,49.159h-47.54L191.952,203.531z
	 M334.71,203.457l-4.801,49.207h-52.076l-4.683-49.175L334.71,203.457z M270.271,173.26l-4.668-49.018l76.813,0.236l-4.756,48.748
	L270.271,173.26z M360.279,252.664l4.802-49.223l48.572-0.025l-9.928,49.248H360.279z M419.749,173.183l-51.718,0.027l4.746-48.638
	l56.737,0.174L419.749,173.183z M235.224,124.148l4.678,49.128l-52.855,0.028l-8.003-49.328L235.224,124.148z M406.87,344.034
	H163.876l-37.95-236.499c-1.173-7.336-7.499-12.724-14.923-12.724H86.84c-4.244,0-7.69-3.388-7.69-7.558
	c0-4.177,3.447-7.572,7.69-7.572h54.394l38.334,236.277c1.188,7.321,7.513,12.694,14.923,12.694H406.87
	c4.022,0,7.292,3.439,7.292,7.676C414.162,340.58,410.892,344.034,406.87,344.034z M207.583,379.091
	c-23.012,0-41.729,18.717-41.729,41.729c0,23.012,18.717,41.729,41.729,41.729c23.02,0,41.744-18.717,41.744-41.729
	C249.327,397.808,230.603,379.091,207.583,379.091z M207.583,432.319c-6.34,0-11.499-5.152-11.499-11.499
	s5.159-11.499,11.499-11.499c6.347,0,11.513,5.152,11.513,11.499S213.931,432.319,207.583,432.319z M352.86,379.091
	c-23.02,0-41.744,18.717-41.744,41.729c0,23.012,18.724,41.729,41.744,41.729c23.012,0,41.729-18.717,41.729-41.729
	C394.589,397.808,375.872,379.091,352.86,379.091z M352.86,432.319c-6.347,0-11.513-5.152-11.513-11.499s5.166-11.499,11.513-11.499
	c6.34,0,11.499,5.152,11.499,11.499S359.2,432.319,352.86,432.319z"></path>
  <path fill="#5C5CC6" d="M337.66,173.227l-67.389,0.033l-4.668-49.017l76.813,0.236L337.66,173.227z M242.782,203.505l-34.494,0.018
	l7.59,49.141h31.586L242.782,203.505z M239.902,173.275l-4.678-49.128l-39.214-0.12l7.609,49.268L239.902,173.275z M329.91,252.664
	l4.801-49.207l-61.56,0.033l4.683,49.174H329.91z M360.279,252.664h43.447l9.928-49.248l-48.572,0.026L360.279,252.664z
	 M429.513,124.746l-56.737-0.175l-4.746,48.639l51.718-0.028L429.513,124.746z"></path>
  <path fill="#B3CCE7" d="M111.003,94.811H91.935c-3.509-2.93-5.764-7.855,1.515-15.13h47.784l38.334,236.277
	c1.188,7.321,7.513,12.694,14.923,12.694H406.87c4.022,0,7.292,3.439,7.292,7.676c0,4.251-3.27,7.705-7.292,7.705H163.876
	l-37.95-236.499C124.753,100.199,118.428,94.811,111.003,94.811z M207.583,409.321c-6.34,0-11.499,5.152-11.499,11.499
	s5.159,11.499,11.499,11.499c6.347,0,11.513-5.152,11.513-11.499S213.931,409.321,207.583,409.321z M364.359,420.82
	c0-6.347-5.159-11.499-11.499-11.499c-6.347,0-11.513,5.152-11.513,11.499s5.166,11.499,11.513,11.499
	C359.2,432.319,364.359,427.167,364.359,420.82z"></path>
</svg>
