<svg xmlns="http://www.w3.org/2000/svg" enable-background="new 0 0 512 512" viewBox="0 0 512 512" id="hair-dryer">
  <polygon fill="#9dcafc" points="151.12 40.63 151 41.24 169.533 116.6 151 201.24 151.1 201.78 100.37 211.57 100.37 30.84"></polygon>
  <path fill="#fff" d="M231 371.24v10c0 22.1-17.91 40-40 40s-40-17.9-40-40v-10C174.459 371.24 206.045 371.24 231 371.24zM320.43 271.24L330.86 306l-10.43 34.78H291c-11.05 0-20-8.96-20-20v-29.54c0-11.04 8.95-20 20-20H320.43z"></path>
  <path fill="#9dcafc" d="M320.43,227.5c0,17.918,0,154.806,0,173.74l50.43,12.96l39.94-12.96V213.78L320.43,227.5z"></path>
  <path fill="#fff" d="M446.36,66.2h-0.14l0.14,110c30.18,0,54.64-24.46,54.64-54.64v-0.72
			C501,90.67,476.54,66.2,446.36,66.2z"></path>
  <path fill="#fff" d="M460.99,119.63c1.037,73.701-69.296,127.976-140.56,107.87v-0.01
			c-10.04-2.84-19.49-7.06-28.15-12.44c-31.49-19.6-68.98-27.21-105.4-20.18l-35.78,6.91l-0.1-0.54
			c0.002-2.971-0.019,25.213,0.12-160.61l34.07,6.58c36.64,7.07,74.85,0.56,106.38-19.4C344.536-5.725,414.717,11.797,446.22,66.2
			C455.37,81.98,460.72,100.21,460.99,119.63z"></path>
  <path fill="#fff" d="M351.24,60.96c33.28,0,60.25,26.97,60.25,60.24c0,33.28-26.97,60.25-60.25,60.25
			c-33.27,0-60.24-26.97-60.24-60.25C291,87.93,317.97,60.96,351.24,60.96z"></path>
  <circle cx="350.86" cy="121.71" r="20" fill="#fff"></circle>
  <path fill="#fff" d="M410.8,401.24v15.11c0,24.946-20.229,45.18-45.19,45.18c-24.95,0-45.18-20.23-45.18-45.18v-15.11
			H410.8z"></path>
  <path fill="#4269a7" d="M351.245,50.959c-38.733,0-70.245,31.512-70.245,70.245s31.512,70.245,70.245,70.245
				c38.733,0,70.245-31.512,70.245-70.245S389.978,50.959,351.245,50.959z M351.245,171.449c-27.705,0-50.245-22.54-50.245-50.245
				s22.54-50.245,50.245-50.245s50.245,22.54,50.245,50.245S378.95,171.449,351.245,171.449z"></path>
  <path fill="#4269a7" d="M350.858,91.714c-16.542,0-30,13.458-30,30s13.458,30,30,30s30-13.458,30-30
				S367.4,91.714,350.858,91.714z M350.858,131.714c-5.514,0-10-4.486-10-10s4.486-10,10-10s10,4.486,10,10
				S356.372,131.714,350.858,131.714z"></path>
  <path fill="#4269a7" d="M452.003 56.466C415.797.058 341.69-15.751 286.222 19.358c-29.02 18.369-64.229 24.775-99.139 18.034l-84.82-16.374c-6.17-1.19-11.896 3.544-11.896 9.819v180.734c0 6.281 5.735 11.011 11.896 9.819l86.511-16.699c33.438-6.455 68.323.238 98.226 18.848 7.424 4.62 15.291 8.357 23.429 11.223v26.484H291c-16.542 0-30 13.458-30 30v29.53c0 16.542 13.458 30 30 30h19.429v65.572c0 26.543 18.839 48.764 43.846 54.007-3.767 12.09-15.063 20.891-28.377 20.891H271c-35.594 0-65.047-26.711-69.419-61.137C224.085 425.239 241 405.185 241 381.245v-10c0-5.523-4.477-10-10-10h-10v-20c0-5.523-4.477-10-10-10s-10 4.477-10 10v20h-20v-20c0-5.523-4.477-10-10-10s-10 4.477-10 10v20h-10c-5.523 0-10 4.477-10 10v10c0 24.306 17.436 44.607 40.455 49.075 4.565 45.38 42.982 80.925 89.545 80.925h54.898c24.258 0 44.5-17.468 48.841-40.483 26.098-4.364 46.057-27.097 46.057-54.415V219.07c12.553-9.056 23.161-20.303 31.376-33.14C485.1 182.981 511 155.247 511 121.565v-.72C511 87.105 485.011 59.337 452.003 56.466zM161 381.245h60c0 16.542-13.458 30-30 30S161 397.787 161 381.245zM110.367 42.952L141 48.865v144.678l-30.633 5.913V42.952zM291 330.775c-5.514 0-10-4.486-10-10v-29.53c0-5.514 4.486-10 10-10h19.429v49.53H291zM365.612 451.531c-19.4 0-35.184-15.783-35.184-35.184v-5.102h70.367v5.102C400.796 435.747 385.013 451.531 365.612 451.531zM400.796 391.245h-70.367c0-17.528 0-127.957 0-151.32 23.478 3.975 48.072 1.041 70.367-9.196V391.245zM297.567 206.558c-34.254-21.316-74.239-28.905-112.584-21.505L161 189.682V52.726l22.292 4.303c39.929 7.707 80.285.331 113.626-20.772C344.55 6.109 408.311 21.164 437.325 70.76c.139.271.291.534.453.79 17.908 31.255 17.352 69.258.052 99.455-.122.2-.241.402-.349.611C408.812 220.845 345.408 236.331 297.567 206.558zM463.692 162.702c9.503-25.953 10.032-55.624-.115-83.04C500.125 94.999 500.122 147.295 463.692 162.702zM67.402 53.521c-4.243-3.535-10.548-2.961-14.084 1.281-9.064 10.878-8.406 10.305-8.983 10.305-.397 0-.588-.229-.651-.305-8.326-9.991-23.689-10.01-32.031 0l-8.334 10c-3.536 4.243-2.962 10.548 1.28 14.084 4.239 3.533 10.544 2.967 14.084-1.28l8.334-10c.344-.411.963-.408 1.302 0 8.327 9.991 23.69 10.012 32.032 0l8.332-9.999C72.218 63.363 71.645 57.057 67.402 53.521zM67.402 103.521c-4.243-3.536-10.548-2.961-14.084 1.281-9.064 10.878-8.406 10.305-8.983 10.305-.397 0-.588-.229-.651-.305-8.326-9.991-23.689-10.01-32.031 0l-8.334 10c-3.536 4.243-2.962 10.548 1.28 14.084 4.239 3.533 10.544 2.967 14.084-1.28l8.334-10c.344-.411.963-.408 1.302 0 8.327 9.991 23.69 10.012 32.032 0l8.332-9.999C72.218 113.363 71.645 107.057 67.402 103.521zM67.402 153.521c-4.243-3.535-10.548-2.962-14.084 1.281l-8.332 10c-.343.412-.962.408-1.302 0-8.326-9.991-23.689-10.01-32.031 0l-8.334 10c-3.536 4.243-2.962 10.548 1.28 14.084 4.239 3.533 10.544 2.967 14.084-1.28l8.334-10c.344-.411.963-.408 1.302 0 8.327 9.991 23.69 10.012 32.032 0l8.332-9.999C72.218 163.363 71.645 157.057 67.402 153.521z"></path>
</svg>
