<svg xmlns="http://www.w3.org/2000/svg" id="heart" viewBox="0 0 512 512">
  <path d="M461.5,61.67c0-26.92-21.83-48.75-48.75-48.75-13.47,0-25.66,5.46-34.48,14.29-8.82-8.83-21.02-14.29-34.48-14.29-26.92,0-48.75,21.83-48.75,48.75,0,29.8,29.64,65.09,60.71,86.9,13.49,9.47,31.56,9.47,45.05,0,31.07-21.82,60.71-57.1,60.71-86.9Z" style="fill:#ffbdd7"></path>
  <path d="M178.03,310.47c0-54.02,43.79-97.8,97.8-97.8,27.02,0,51.48,10.96,69.18,28.67,17.7-17.71,42.16-28.67,69.18-28.67,54.02,0,97.8,43.79,97.8,97.8,0,59.79-59.47,130.58-121.79,174.35-27.06,19.01-63.32,19.01-90.39,0-62.33-43.77-121.79-114.56-121.79-174.35Z" style="fill:#ff6e80"></path>
  <path d="M299.82,484.82c27.06,19.01,63.32,19.01,90.39,0,13.94-9.79,27.73-20.93,40.75-33-128.21-3.46-195.56-141.73-135.04-237.09-6.48-1.35-13.2-2.07-20.08-2.07-54.02,0-97.8,43.79-97.8,97.8,0,59.79,59.47,130.58,121.79,174.35Z" style="fill:#f8475e"></path>
  <path d="M9.71,86.72C9.71,47.49,41.5,15.69,80.73,15.69c19.62,0,37.39,7.96,50.24,20.82,12.85-12.86,30.62-20.82,50.24-20.82,39.23,0,71.03,31.8,71.03,71.03,0,43.42-43.18,94.83-88.45,126.62-19.65,13.8-45.98,13.8-65.64,0C52.89,181.54,9.71,130.14,9.71,86.72Z" style="fill:#ff6e80"></path>
  <path d="M98.15,213.33c19.65,13.8,45.98,13.8,65.64,0,10.12-7.11,20.14-15.2,29.59-23.96-93.11-2.52-148.1-105.06-98.07-172.18-4.71-.98-9.59-1.5-14.58-1.5C41.5,15.69,9.71,47.49,9.71,86.72c0,43.42,43.19,94.83,88.45,126.62Z" style="fill:#f8475e"></path>
  <g>
    <path d="M392.92 305.94c-2.64 0-5.06-1.75-5.79-4.42-.86-3.15-3.74-5.35-7.01-5.35s-6.15 2.2-7.01 5.35c-.87 3.2-4.17 5.08-7.37 4.21-3.2-.87-5.08-4.17-4.21-7.37 2.28-8.35 9.92-14.19 18.59-14.19s16.31 5.83 18.59 14.19c.87 3.2-1.01 6.5-4.21 7.37-.53.14-1.06.21-1.58.21ZM269.23 305.94c-2.64 0-5.06-1.75-5.79-4.42-.86-3.15-3.74-5.35-7.01-5.35s-6.15 2.2-7.01 5.35c-.87 3.2-4.17 5.08-7.37 4.21-3.2-.87-5.08-4.17-4.21-7.37 2.28-8.35 9.92-14.19 18.59-14.19s16.31 5.83 18.59 14.19c.87 3.2-1.01 6.5-4.21 7.37-.53.14-1.06.21-1.58.21ZM318.28 329.14c-11.78 0-21.33-9.55-21.33-21.33 0-9.39 12.29-9.99 21.33-9.99s21.33.6 21.33 9.99c0 11.78-9.55 21.33-21.33 21.33Z" style="fill:#2f445e"></path>
  </g>
  <path d="M148.88,364.85c0-24.08-19.52-43.6-43.6-43.6-12.05,0-22.95,4.88-30.84,12.78-7.89-7.9-18.79-12.78-30.84-12.78-24.08,0-43.6,19.52-43.6,43.6,0,26.65,26.51,58.21,54.29,77.72,12.06,8.47,28.23,8.47,40.29,0,27.78-19.51,54.29-51.07,54.29-77.72Z" style="fill:#ff96c0"></path>
  <g>
    <path d="M135.07 134.1c-9.13 0-17.84-3.27-25.18-9.44-2.54-2.13-2.86-5.92-.73-8.45 2.13-2.54 5.92-2.86 8.45-.73 5.15 4.34 11.19 6.63 17.46 6.63s12.3-2.29 17.46-6.63c2.54-2.13 6.32-1.81 8.45.73 2.13 2.54 1.81 6.32-.73 8.45-7.34 6.18-16.05 9.45-25.18 9.45ZM209.71 115.14c-2.64 0-5.06-1.75-5.79-4.42-.86-3.15-3.74-5.35-7.01-5.35s-6.15 2.2-7.01 5.35c-.87 3.2-4.17 5.08-7.37 4.21-3.2-.87-5.08-4.17-4.21-7.37 2.28-8.35 9.92-14.19 18.59-14.19s16.31 5.83 18.59 14.19c.87 3.2-1.01 6.5-4.21 7.37-.53.14-1.06.21-1.58.21ZM86.02 115.14c-2.64 0-5.06-1.75-5.79-4.42-.86-3.15-3.74-5.35-7.01-5.35s-6.15 2.2-7.01 5.35c-.87 3.2-4.17 5.08-7.37 4.21-3.2-.87-5.08-4.17-4.21-7.37 2.28-8.35 9.92-14.19 18.59-14.19s16.31 5.83 18.59 14.19c.87 3.2-1.01 6.5-4.21 7.37-.53.14-1.06.21-1.58.21Z" style="fill:#2f445e"></path>
  </g>
</svg>
