<svg xmlns="http://www.w3.org/2000/svg" width="32" height="32" fill="none" viewBox="0 0 32 32" id="heart">
  <path fill="url(#paint0_radial_7320_6094)" d="M15.1041 29.2015C15.6391 29.5 16.2827 29.4835 16.8146 29.1795C20.3976 27.1318 26.624 22.4179 29.0692 16.2948C32.6583 8.3224 24.2311 1.95834 18.4068 6.5356C17.7992 7.01307 17.0353 7.55954 16.5096 8.07719C16.2719 8.31124 15.8531 8.33511 15.6063 8.11061C14.9152 7.48177 13.835 6.67511 13.1413 6.20577C8.17592 2.84639 -0.858693 7.27463 2.99515 16.7255C4.40691 20.9677 11.1344 26.9862 15.1041 29.2015Z"></path>
  <path fill="url(#paint1_radial_7320_6094)" d="M15.1041 29.2015C15.6391 29.5 16.2827 29.4835 16.8146 29.1795C20.3976 27.1318 26.624 22.4179 29.0692 16.2948C32.6583 8.3224 24.2311 1.95834 18.4068 6.5356C17.7992 7.01307 17.0353 7.55954 16.5096 8.07719C16.2719 8.31124 15.8531 8.33511 15.6063 8.11061C14.9152 7.48177 13.835 6.67511 13.1413 6.20577C8.17592 2.84639 -0.858693 7.27463 2.99515 16.7255C4.40691 20.9677 11.1344 26.9862 15.1041 29.2015Z"></path>
  <path fill="url(#paint2_linear_7320_6094)" d="M15.1041 29.2015C15.6391 29.5 16.2827 29.4835 16.8146 29.1795C20.3976 27.1318 26.624 22.4179 29.0692 16.2948C32.6583 8.3224 24.2311 1.95834 18.4068 6.5356C17.7992 7.01307 17.0353 7.55954 16.5096 8.07719C16.2719 8.31124 15.8531 8.33511 15.6063 8.11061C14.9152 7.48177 13.835 6.67511 13.1413 6.20577C8.17592 2.84639 -0.858693 7.27463 2.99515 16.7255C4.40691 20.9677 11.1344 26.9862 15.1041 29.2015Z"></path>
  <path fill="url(#paint3_linear_7320_6094)" d="M15.1041 29.2015C15.6391 29.5 16.2827 29.4835 16.8146 29.1795C20.3976 27.1318 26.624 22.4179 29.0692 16.2948C32.6583 8.3224 24.2311 1.95834 18.4068 6.5356C17.7992 7.01307 17.0353 7.55954 16.5096 8.07719C16.2719 8.31124 15.8531 8.33511 15.6063 8.11061C14.9152 7.48177 13.835 6.67511 13.1413 6.20577C8.17592 2.84639 -0.858693 7.27463 2.99515 16.7255C4.40691 20.9677 11.1344 26.9862 15.1041 29.2015Z"></path>
  <path fill="url(#paint4_radial_7320_6094)" d="M15.1041 29.2015C15.6391 29.5 16.2827 29.4835 16.8146 29.1795C20.3976 27.1318 26.624 22.4179 29.0692 16.2948C32.6583 8.3224 24.2311 1.95834 18.4068 6.5356C17.7992 7.01307 17.0353 7.55954 16.5096 8.07719C16.2719 8.31124 15.8531 8.33511 15.6063 8.11061C14.9152 7.48177 13.835 6.67511 13.1413 6.20577C8.17592 2.84639 -0.858693 7.27463 2.99515 16.7255C4.40691 20.9677 11.1344 26.9862 15.1041 29.2015Z"></path>
  <path fill="url(#paint5_radial_7320_6094)" d="M15.1041 29.2015C15.6391 29.5 16.2827 29.4835 16.8146 29.1795C20.3976 27.1318 26.624 22.4179 29.0692 16.2948C32.6583 8.3224 24.2311 1.95834 18.4068 6.5356C17.7992 7.01307 17.0353 7.55954 16.5096 8.07719C16.2719 8.31124 15.8531 8.33511 15.6063 8.11061C14.9152 7.48177 13.835 6.67511 13.1413 6.20577C8.17592 2.84639 -0.858693 7.27463 2.99515 16.7255C4.40691 20.9677 11.1344 26.9862 15.1041 29.2015Z"></path>
  <path fill="url(#paint6_radial_7320_6094)" d="M15.1041 29.2015C15.6391 29.5 16.2827 29.4835 16.8146 29.1795C20.3976 27.1318 26.624 22.4179 29.0692 16.2948C32.6583 8.3224 24.2311 1.95834 18.4068 6.5356C17.7992 7.01307 17.0353 7.55954 16.5096 8.07719C16.2719 8.31124 15.8531 8.33511 15.6063 8.11061C14.9152 7.48177 13.835 6.67511 13.1413 6.20577C8.17592 2.84639 -0.858693 7.27463 2.99515 16.7255C4.40691 20.9677 11.1344 26.9862 15.1041 29.2015Z"></path>
  <path fill="url(#paint7_radial_7320_6094)" d="M15.1041 29.2015C15.6391 29.5 16.2827 29.4835 16.8146 29.1795C20.3976 27.1318 26.624 22.4179 29.0692 16.2948C32.6583 8.3224 24.2311 1.95834 18.4068 6.5356C17.7992 7.01307 17.0353 7.55954 16.5096 8.07719C16.2719 8.31124 15.8531 8.33511 15.6063 8.11061C14.9152 7.48177 13.835 6.67511 13.1413 6.20577C8.17592 2.84639 -0.858693 7.27463 2.99515 16.7255C4.40691 20.9677 11.1344 26.9862 15.1041 29.2015Z"></path>
  <path fill="url(#paint8_radial_7320_6094)" d="M15.1041 29.2015C15.6391 29.5 16.2827 29.4835 16.8146 29.1795C20.3976 27.1318 26.624 22.4179 29.0692 16.2948C32.6583 8.3224 24.2311 1.95834 18.4068 6.5356C17.7992 7.01307 17.0353 7.55954 16.5096 8.07719C16.2719 8.31124 15.8531 8.33511 15.6063 8.11061C14.9152 7.48177 13.835 6.67511 13.1413 6.20577C8.17592 2.84639 -0.858693 7.27463 2.99515 16.7255C4.40691 20.9677 11.1344 26.9862 15.1041 29.2015Z"></path>
  <g filter="url(#filter0_f_7320_6094)">
    <path fill="#2EBC6F" d="M15.7954 10.5408V17.3635C15.7954 18.2684 16.8911 18.6973 17.4551 17.9897C19.2002 15.8007 20.6078 13.1389 19.037 10.9647C18.4347 10.131 17.281 9.59695 16.3382 9.76686C15.9855 9.83043 15.7954 10.1824 15.7954 10.5408Z"></path>
  </g>
  <g filter="url(#filter1_f_7320_6094)">
    <path fill="url(#paint9_radial_7320_6094)" d="M25.9076 6.91039C28.5057 7.97979 29.2883 12.0624 27.6555 16.0292C26.0228 19.9959 22.593 22.3447 19.9949 21.2753C17.3968 20.2058 16.6142 16.1232 18.2469 12.1565C19.8797 8.18974 23.3095 5.84098 25.9076 6.91039Z"></path>
  </g>
  <g filter="url(#filter2_f_7320_6094)">
    <path fill="url(#paint10_radial_7320_6094)" d="M14.8397 9.84594L15.0447 20.2121C8.16972 13.5246 6.93859 8.73396 9.27719 7.12719C10.9472 5.97977 14.0897 8.28344 14.8397 9.84594Z"></path>
  </g>
  <g filter="url(#filter3_f_7320_6094)">
    <path stroke="url(#paint11_linear_7320_6094)" stroke-linecap="round" stroke-opacity=".5" stroke-width=".25" d="M21.831 6.38789C22.9177 6.25299 26.6173 6.50935 27.8729 9.71009"></path>
  </g>
  <g filter="url(#filter4_f_7320_6094)">
    <path stroke="url(#paint12_linear_7320_6094)" stroke-linecap="round" stroke-opacity=".5" stroke-width=".25" d="M8.44077 6.41333C9.52741 6.27843 12.4647 6.41333 14.8398 9.84607"></path>
  </g>
  <defs>
    <radialGradient id="paint0_radial_7320_6094" cx="0" cy="0" r="1" gradientTransform="matrix(0 25.0559 -26.6012 0 15.77 5.634)" gradientUnits="userSpaceOnUse">
      <stop offset=".204" stop-color="#31C66A"></stop>
      <stop offset=".528" stop-color="#40B98A"></stop>
      <stop offset="1" stop-color="#43A395"></stop>
    </radialGradient>
    <radialGradient id="paint1_radial_7320_6094" cx="0" cy="0" r="1" gradientTransform="rotate(-57.293 33.282 3.665)scale(30.305 28.3828)" gradientUnits="userSpaceOnUse">
      <stop offset=".801" stop-color="#5BE689" stop-opacity="0"></stop>
      <stop offset="1" stop-color="#5BE689"></stop>
    </radialGradient>
    <radialGradient id="paint4_radial_7320_6094" cx="0" cy="0" r="1" gradientTransform="matrix(0 26.6875 -33.0073 0 15.895 6.064)" gradientUnits="userSpaceOnUse">
      <stop offset=".733" stop-color="#408B91" stop-opacity="0"></stop>
      <stop offset=".895" stop-color="#408B91"></stop>
    </radialGradient>
    <radialGradient id="paint5_radial_7320_6094" cx="0" cy="0" r="1" gradientTransform="matrix(-11.74996 10.8126 -15.86844 -17.2441 19.965 13.377)" gradientUnits="userSpaceOnUse">
      <stop offset=".616" stop-color="#408B91" stop-opacity="0"></stop>
      <stop offset="1" stop-color="#408B91"></stop>
    </radialGradient>
    <radialGradient id="paint6_radial_7320_6094" cx="0" cy="0" r="1" gradientTransform="rotate(-126.7 16.68 8.96)scale(33.6751 34.168)" gradientUnits="userSpaceOnUse">
      <stop offset=".669" stop-color="#409157" stop-opacity="0"></stop>
      <stop offset="1" stop-color="#409157"></stop>
    </radialGradient>
    <radialGradient id="paint7_radial_7320_6094" cx="0" cy="0" r="1" gradientTransform="matrix(0 17.499 -19.705 0 15.447 13.815)" gradientUnits="userSpaceOnUse">
      <stop offset=".764" stop-color="#8590CE" stop-opacity="0"></stop>
      <stop offset=".934" stop-color="#8590CE"></stop>
    </radialGradient>
    <radialGradient id="paint8_radial_7320_6094" cx="0" cy="0" r="1" gradientTransform="scale(17.6425 17.499)rotate(90 .043 .833)" gradientUnits="userSpaceOnUse">
      <stop offset=".864" stop-color="#ADB6E8" stop-opacity="0"></stop>
      <stop offset=".934" stop-color="#ADB6E8"></stop>
    </radialGradient>
    <radialGradient id="paint9_radial_7320_6094" cx="0" cy="0" r="1" gradientTransform="rotate(113.398 11.914 11.344)scale(15.0883 5.91581)" gradientUnits="userSpaceOnUse">
      <stop stop-color="#48FF90"></stop>
      <stop offset="1" stop-color="#48FF90" stop-opacity="0"></stop>
    </radialGradient>
    <radialGradient id="paint10_radial_7320_6094" cx="0" cy="0" r="1" gradientTransform="matrix(-6.68755 -6.56244 11.64945 -11.87155 16.402 11.877)" gradientUnits="userSpaceOnUse">
      <stop stop-color="#80F2AD"></stop>
      <stop offset="1" stop-color="#68EC9C" stop-opacity="0"></stop>
    </radialGradient>
    <filter id="filter0_f_7320_6094" width="7.923" height="12.608" x="13.795" y="7.735" color-interpolation-filters="sRGB" filterUnits="userSpaceOnUse">
      <feFlood flood-opacity="0" result="BackgroundImageFix"></feFlood>
      <feBlend in="SourceGraphic" in2="BackgroundImageFix" result="shape"></feBlend>
      <feGaussianBlur result="effect1_foregroundBlur_7320_6094" stdDeviation="1"></feGaussianBlur>
    </filter>
    <filter id="filter1_f_7320_6094" width="14.114" height="17.881" x="15.894" y="5.152" color-interpolation-filters="sRGB" filterUnits="userSpaceOnUse">
      <feFlood flood-opacity="0" result="BackgroundImageFix"></feFlood>
      <feBlend in="SourceGraphic" in2="BackgroundImageFix" result="shape"></feBlend>
      <feGaussianBlur result="effect1_foregroundBlur_7320_6094" stdDeviation=".75"></feGaussianBlur>
    </filter>
    <filter id="filter2_f_7320_6094" width="12.852" height="19.394" x="5.192" y="3.818" color-interpolation-filters="sRGB" filterUnits="userSpaceOnUse">
      <feFlood flood-opacity="0" result="BackgroundImageFix"></feFlood>
      <feBlend in="SourceGraphic" in2="BackgroundImageFix" result="shape"></feBlend>
      <feGaussianBlur result="effect1_foregroundBlur_7320_6094" stdDeviation="1.5"></feGaussianBlur>
    </filter>
    <filter id="filter3_f_7320_6094" width="8.292" height="5.6" x="20.706" y="5.236" color-interpolation-filters="sRGB" filterUnits="userSpaceOnUse">
      <feFlood flood-opacity="0" result="BackgroundImageFix"></feFlood>
      <feBlend in="SourceGraphic" in2="BackgroundImageFix" result="shape"></feBlend>
      <feGaussianBlur result="effect1_foregroundBlur_7320_6094" stdDeviation=".5"></feGaussianBlur>
    </filter>
    <filter id="filter4_f_7320_6094" width="8.649" height="5.715" x="7.316" y="5.256" color-interpolation-filters="sRGB" filterUnits="userSpaceOnUse">
      <feFlood flood-opacity="0" result="BackgroundImageFix"></feFlood>
      <feBlend in="SourceGraphic" in2="BackgroundImageFix" result="shape"></feBlend>
      <feGaussianBlur result="effect1_foregroundBlur_7320_6094" stdDeviation=".5"></feGaussianBlur>
    </filter>
    <linearGradient id="paint2_linear_7320_6094" x1="17.632" x2="25.645" y1="16.133" y2="25.668" gradientUnits="userSpaceOnUse">
      <stop offset=".694" stop-color="#8590CE" stop-opacity="0"></stop>
      <stop offset=".934" stop-color="#8590CE"></stop>
    </linearGradient>
    <linearGradient id="paint3_linear_7320_6094" x1="16.639" x2="7.152" y1="16.53" y2="26.439" gradientUnits="userSpaceOnUse">
      <stop offset=".694" stop-color="#8590CE" stop-opacity="0"></stop>
      <stop offset=".885" stop-color="#7E8DE2"></stop>
    </linearGradient>
    <linearGradient id="paint11_linear_7320_6094" x1="26.46" x2="23.806" y1="8.131" y2="6.792" gradientUnits="userSpaceOnUse">
      <stop stop-color="#48FF90"></stop>
      <stop offset="1" stop-color="#48FF90" stop-opacity="0"></stop>
    </linearGradient>
    <linearGradient id="paint12_linear_7320_6094" x1="13.069" x2="10.415" y1="8.156" y2="6.818" gradientUnits="userSpaceOnUse">
      <stop stop-color="#48FF90"></stop>
      <stop offset="1" stop-color="#48FF90" stop-opacity="0"></stop>
    </linearGradient>
  </defs>
</svg>
