<svg xmlns="http://www.w3.org/2000/svg" xmlns:xlink="http://www.w3.org/1999/xlink" width="519" height="519" viewBox="0 0 519 519" id="heart-love-emoji">
  <defs>
    <radialGradient id="a" cx="50%" cy="18.4%" r="59.676%" fx="50%" fy="18.4%">
      <stop offset="0%" stop-color="#FDE990"></stop>
      <stop offset="100%" stop-color="#FACE57"></stop>
    </radialGradient>
    <radialGradient id="b" cx="50%" cy="44.771%" r="49.968%" fx="50%" fy="44.771%" gradientTransform="rotate(-88.88 .495 .453)scale(1 1.02299)">
      <stop offset="0%" stop-color="#D27C12" stop-opacity=".186"></stop>
      <stop offset="73.725%" stop-color="#D27C12" stop-opacity="0"></stop>
      <stop offset="100%" stop-color="#D27C12" stop-opacity=".187"></stop>
    </radialGradient>
    <radialGradient id="c" cx="52.886%" cy="38.451%" r="83.12%" fx="52.886%" fy="38.451%" gradientTransform="matrix(-.18294 .85708 -.98312 -.15949 1.004 -.007)">
      <stop offset="0%" stop-color="#402B1A"></stop>
      <stop offset="100%"></stop>
    </radialGradient>
    <radialGradient id="g" cx="50%" cy="30.64%" r="61.844%" fx="50%" fy="30.64%" gradientTransform="matrix(-.00615 .99997 -.8485 -.00724 .763 -.192)">
      <stop offset="0%" stop-color="#E88FA0"></stop>
      <stop offset="55.081%" stop-color="#F25674"></stop>
      <stop offset="100%" stop-color="#EC1740"></stop>
    </radialGradient>
    <radialGradient id="h" cx="50%" cy="61.05%" r="36.586%" fx="50%" fy="61.05%" gradientTransform="matrix(0 1 -1.11934 0 1.183 .11)">
      <stop offset="0%" stop-color="#C4003A"></stop>
      <stop offset="100%" stop-color="#C40424" stop-opacity="0"></stop>
    </radialGradient>
    <radialGradient id="j" cx="50%" cy="59.633%" r="41.727%" fx="50%" fy="59.633%" gradientTransform="matrix(.01655 .99958 -.79384 .04011 .965 .073)">
      <stop offset="0%" stop-color="#C4003A"></stop>
      <stop offset="70.479%" stop-color="#C40039" stop-opacity=".937"></stop>
      <stop offset="100%" stop-color="#C40424" stop-opacity="0"></stop>
    </radialGradient>
    <radialGradient id="l" cx="60.214%" cy="50%" r="100.646%" fx="60.214%" fy="50%" gradientTransform="scale(-.68936 -1)rotate(29.788 1.744 -2.774)">
      <stop offset="0%" stop-color="#F7D87A"></stop>
      <stop offset="100%" stop-color="#F2BF4C"></stop>
    </radialGradient>
    <radialGradient id="m" cx="65.504%" cy="78.361%" r="69.74%" fx="65.504%" fy="78.361%" gradientTransform="matrix(-.7581 -.46351 .39656 -.88609 .84 1.782)">
      <stop offset="0%" stop-color="#F7D87A"></stop>
      <stop offset="27.124%" stop-color="#FFD451"></stop>
      <stop offset="100%" stop-color="#F2C04C"></stop>
    </radialGradient>
    <linearGradient id="d" x1="50%" x2="50%" y1="0%" y2="100%">
      <stop offset="0%" stop-color="#E58200"></stop>
      <stop offset="100%" stop-color="#B15900"></stop>
    </linearGradient>
    <linearGradient id="e" x1="50%" x2="50%" y1="0%" y2="100%">
      <stop offset="0%" stop-color="#E58200"></stop>
      <stop offset="100%" stop-color="#B15900"></stop>
    </linearGradient>
    <linearGradient id="f" x1="50%" x2="50%" y1="0%" y2="100%">
      <stop offset="0%"></stop>
      <stop offset="100%" stop-color="#663C20"></stop>
    </linearGradient>
    <ellipse id="i" cx="131" cy="75" rx="131" ry="75"></ellipse>
  </defs>
  <g fill="none" fill-rule="evenodd">
    <circle cx="259.5" cy="259.5" r="259.5" fill="url(#a)"></circle>
    <circle cx="259.5" cy="259.5" r="259.5" fill="url(#b)"></circle>
    <path fill="url(#c)" d="M164.056943,166.272202 C196.481277,161.98544 195.353295,144.269769 192.918095,122.616301 C190.482894,100.962832 170.914123,86.7328965 155.347357,89.2981769 C139.780591,91.8634574 123.812215,112.111416 126.247416,133.764884 C128.682617,155.418353 131.632609,170.558964 164.056943,166.272202 Z" opacity=".88"></path>
    <ellipse cx="148.5" cy="113" fill="#FFF" opacity=".25" rx="8.5" ry="11"></ellipse>
    <path fill="url(#d)" fill-rule="nonzero" d="M196.65092,31.6579027 C202.924681,30.5254928 211.729052,32.3961233 215.927105,39.5715874 C220.125158,46.7470514 221.085316,53.5506887 214.753193,54.5184684 C177.469057,60.216847 142.376584,77.9972847 127.341504,90.384644 C122.270306,94.562789 115.669934,97.534268 111.525783,92.4214716 C107.381633,87.3086752 111.353855,84.1516128 114.925336,79.4427626 C128.636023,61.3657905 163.516883,37.6385755 196.65092,31.6579027 Z" transform="rotate(14 164.523 63.239)"></path>
    <path fill="url(#c)" d="M362.652643,89.2981769 C347.085877,86.7328965 327.517106,100.962832 325.081905,122.616301 L324.79802,125.195208 C322.61015,145.665537 322.815697,162.156911 353.943057,166.272202 C386.367391,170.558964 389.317383,155.418353 391.752584,133.764884 C394.187785,112.111416 378.219409,91.8634574 362.652643,89.2981769 Z" opacity=".88"></path>
    <ellipse cx="345.5" cy="113" fill="#FFF" opacity=".25" rx="8.5" ry="11"></ellipse>
    <path fill="url(#e)" d="M314.996088,40.2219159 C308.642679,40.6352272 300.561387,44.5103118 298.224324,52.3423092 L298.017329,53.0618906 C295.936384,60.5802005 296.79446,66.8642975 302.968697,66.2982869 C340.102214,62.8941474 378.011358,71.2785091 395.804458,79.4247078 L396.337464,79.671477 C402.260357,82.4448133 409.374067,83.7053324 412.156614,77.8505959 C414.889472,72.1004083 410.490054,70.0085231 405.976468,66.4915648 L405.730201,66.2982869 C388.080634,52.3423092 348.550779,38.0390672 314.996088,40.2219159 Z" opacity=".88"></path>
    <path fill="url(#f)" d="M258.999811,217 C283.585627,217 305.089362,208.688713 312.744106,201.176466 C314.763356,199.194805 315,196.902547 315,195.645557 C315,189.623461 290.071135,188 258.999811,188 C227.928488,188 203,189.623461 203,195.645557 C203,196.991193 202.943745,199.021387 205.203297,201.176466 C213.055868,208.665962 234.87137,217 258.999811,217 Z" opacity=".88"></path>
    <path fill="url(#g)" d="M190.02678,520.867509 C187.544662,520.867509 185.062563,520.06936 182.981973,518.47527 C123.105918,480.333794 83.2510124,447.025706 63.4172556,418.551007 L61.6964223,416.069158 L60.4371713,414.235875 C46.7877963,394.273226 30.8226944,367.786781 30.815332,341.58184 C30.801247,291.410913 71.0827276,250.75067 120.786541,250.764642 C148.308503,250.772384 172.948534,263.249422 189.462214,282.902081 L189.95987,283.499807 C206.462759,263.512039 231.315129,250.795723 259.115091,250.803539 C308.818904,250.817514 349.123227,291.500416 349.137318,341.671342 C349.144826,368.416591 332.52992,395.445726 318.715791,415.534682 L318.298058,416.141306 L316.578619,418.622188 C296.760851,447.085738 256.924646,480.371419 197.070003,518.479232 C194.990308,520.072152 192.508656,520.867509 190.02678,520.867509 Z" transform="rotate(12 189.976 385.816)"></path>
    <ellipse cx="160" cy="373.5" fill="url(#h)" rx="101" ry="81.5"></ellipse>
    <g transform="translate(202 363)">
      <mask id="k" fill="#fff">
        <use xlink:href="#i"></use>
      </mask>
      <use xlink:href="#i" fill="url(#j)"></use>
      <ellipse cx="57.512" cy="-102.564" fill="#C67700" fill-opacity=".32" mask="url(#k)" rx="259.444" ry="260.256"></ellipse>
    </g>
    <path fill="url(#l)" d="M54.6751036,253.193148 C65.3896621,257.548779 88.663809,284.481096 115.860571,287.837936 C143.057334,291.194775 178.720765,276.015152 178.720765,276.015152 C178.720765,276.015152 189.815663,274.015066 189.815663,287.837936 C189.815663,297.053182 181.574607,305.058532 165.092494,311.853983 C183.367873,307.695274 199.142317,307.695274 212.415825,311.853983 C232.326087,318.092048 241.743119,341.795191 232.326087,359.738387 C222.909054,377.681584 208.736473,400.778944 159.504551,408.854383 C110.272628,416.929823 38.5769924,401.615025 25.1963054,372.922932 C11.8156185,344.230839 -6.9811502,278.112863 4.62920744,260.988225 C16.2395651,243.863587 43.9605451,248.837517 54.6751036,253.193148 Z"></path>
    <path fill="url(#m)" d="M287.46746,261.399741 C306.684214,298.675276 316.746468,315.468146 325.436791,325.49428 C353.689305,358.089556 397.593232,361.179351 409.819158,361.179351 C441.1958,361.179351 472.556078,349.383898 472.556078,349.383898 C472.556078,349.383898 483.629217,347.388436 483.629217,361.179351 C483.629217,370.373294 475.404323,378.360137 458.954533,385.139879 C471.496432,387.200222 484.003619,390.453061 496.476093,394.898395 C515.184805,401.566397 522.091157,428.90866 509.904211,449.595032 C497.717264,470.281405 457.877646,479 429.989806,479 C402.101966,479 350.461216,478.067072 317.302368,444.359397 C284.14352,410.651722 258.784678,362.540834 251.066448,325.49428 C244.311184,293.069838 244.311184,271.17226 251.066448,258.842353 C257.693325,246.746784 277.074132,241.239372 287.46746,261.399741 Z" transform="matrix(-1 0 0 1 762 0)"></path>
  </g>
</svg>
