<svg xmlns="http://www.w3.org/2000/svg" viewBox="0 0 168 168" id="lotion-cream">
  <path fill="#2d4356" d="M129,85.18323H102.04376c.389,1.31207.73541,2.64771,1.04932,3.99994H129a6.00651,6.00651,0,0,1,6,5.99994v5.99994H104.84167q.12506,1.98679.14386,3.99994H137a2.00009,2.00009,0,0,0,2-1.99994V95.18311A10.01171,10.01171,0,0,0,129,85.18323Z"></path>
  <path fill="#0bceb2" d="M121 130.18275a9 9 0 1 0-9 8.99994A9.00978 9.00978 0 0 0 121 130.18275zm-14 0a5 5 0 1 1 5 4.99994A5.00587 5.00587 0 0 1 107 130.18275zM65 88.18317c-7.71973 0-14 8.07513-14 17.99982s6.28027 17.99982 14 17.99982 14-8.07513 14-17.99982S72.71973 88.18317 65 88.18317zm0 31.99969c-5.51367 0-10-6.28021-10-13.99988s4.48633-13.99988 10-13.99988S75 98.46332 75 106.183 70.51367 120.18287 65 120.18287z"></path>
  <circle cx="2" cy="149.183" r="2" fill="#2d4356"></circle>
  <path fill="#2d4356" d="M11 147.18323H8a2 2 0 0 0 0 4h3a2 2 0 0 0 0-4zM160 147.18323h-3a2 2 0 0 0 0 4h3a2 2 0 0 0 0-4z"></path>
  <circle cx="166" cy="149.183" r="2" fill="#2d4356"></circle>
  <path fill="#0bceb2" d="M118.15387 155.18323h-8.30774a2.00641 2.00641 0 0 0 0 4h8.30774a2.00641 2.00641 0 0 0 0-4zM58.15387 155.18323H49.84613a2.00641 2.00641 0 0 0 0 4h8.30774a2.00641 2.00641 0 0 0 0-4zM104 155.18323H64a2 2 0 0 0 0 4H79.94v2H72a2 2 0 0 0 0 4H97a2 2 0 1 0 0-4H88.06v-2H104a2 2 0 1 0 0-4z"></path>
  <path fill="#2d4356" d="M150.72131,147.18323h-15.8028A11.93762,11.93762,0,0,0,138,139.18268V111.18293a2,2,0,0,0-2-1.99994H104.92786c-.05469,1.34369-.13849,2.67859-.2619,3.99994H134v25.99976a8.0091,8.0091,0,0,1-8,7.99988H98a7.96118,7.96118,0,0,1-5.05255-1.8042q-.69305.92249-1.41852,1.80487H86.15314C95.49518,137.6471,101,122.55475,101,106.02546c0-18.85822-7.31726-35.32953-18.1441-44.105A1.98833,1.98833,0,0,0,83,61.18415V53.18421a6.00651,6.00651,0,0,0-6-5.99994H74.18848c.002-1.94354-.13379-6.50677-.00586-8.23041.05957-.79687,1.33691-1.9472,7.08594-2.90228,7.31836-1.21289,14.89746.98535,20.68164,3.038a1.99832,1.99832,0,0,0,2.333-.77539c.98047-1.46967,1.76074-2.538,2.38867-3.39545.38672-.5293.71191-.97461.98242-1.37207a2.0014,2.0014,0,0,0,.02832-2.20605c-2.3916-3.71771-7.332-5.05072-10.60059-5.93256-5.91406-1.59857-11.80859-1.29486-18.34766-.7724l-1.21191.09863c-6.249.50677-12.15332.98529-17.8252-.44922l-.76855-.2002c-3.11523-.82422-7.82227-2.06348-10.7793,1.45795-2.1123,2.51758-3.126,6.83588-.8457,9.88177,1.63672,2.18842,4.97363,3.31732,7.64648,3.6347l.00836,8.12494H53a6.00651,6.00651,0,0,0-6,5.99994v7.99994a1.98833,1.98833,0,0,0,.1441.73633C36.31726,70.69593,29,87.16724,29,106.02546c0,16.52972,5.50507,31.62238,14.8468,41.15778H17.27869a2.017,2.017,0,1,0,0,4H150.72131a2.017,2.017,0,1,0,0-4ZM50.50586,33.02717c-.99414-1.32812-.40723-3.5849.708-4.913,1.22559-1.46,3.75684-.9375,6.69434-.16211a40.468,40.468,0,0,0,9.788,1.27765c3.79425.04382,7.57837-.30243,11.35651-.60675,6.16016-.49219,11.69043-.7832,16.9873.64648,2.2793.61523,5.55273,1.499,7.43555,3.24408l-.03223.04395c-.4541.62109-.98633,1.34766-1.61621,2.25488C95.79688,32.7674,88.208,30.84168,80.6123,32.10627c-3.26367.542-10.05469,1.66992-10.418,6.55072-.14453,1.93164-.00391,6.63763-.00555,8.52728H58.95856c-.00305-3.01447-.01031-10.03534-.01031-10.04578a2.05117,2.05117,0,0,0-2.13281-1.99414C55.00684,35.2674,51.55371,34.43049,50.50586,33.02717ZM51,53.18421a2.00261,2.00261,0,0,1,2-2H77a2.00261,2.00261,0,0,1,2,2v5.99994H51Zm30.125,93.25885a2.96352,2.96352,0,0,1-1.92187.74017H50.79688a2.96391,2.96391,0,0,1-1.92285-.74115C39.083,138.02613,33,122.53992,33,106.02546c0-19.10126,7.8537-35.56012,19.08038-42.84137H63V82.18391a2,2,0,0,0,4,0V63.18409H77.91962C89.1463,70.46534,97,86.9242,97,106.02546,97,122.53992,90.917,138.02613,81.125,146.44306Z"></path>
  <path fill="#2d4356" d="M117 70.18323a3 3 0 1 0-3-3A3.00344 3.00344 0 0 0 117 70.18323zm0-4.5a1.5 1.5 0 1 1-1.5 1.5A1.50148 1.50148 0 0 1 117 65.68323zM154.58056 45.18427a2 2 0 1 0 2 2A2.00229 2.00229 0 0 0 154.58056 45.18427zm0 3a1 1 0 1 1 1-1A1.001 1.001 0 0 1 154.58056 48.18427zM41.16342 10.18323a2 2 0 1 0 2 2A2.00229 2.00229 0 0 0 41.16342 10.18323zm0 3a1 1 0 1 1 1-1A1.001 1.001 0 0 1 41.16342 13.18323zM124.75 33.18688a2 2 0 1 0 2 2A2.00229 2.00229 0 0 0 124.75 33.18688zm0 3a1 1 0 1 1 1-1A1.001 1.001 0 0 1 124.75 36.18688zM31 43.6895a2 2 0 1 0-2 2A2.00229 2.00229 0 0 0 31 43.6895zm-3 0a1 1 0 1 1 1 1A1.001 1.001 0 0 1 28 43.6895z"></path>
  <polygon fill="#0bceb2" points="10.888 68.195 12.375 66.239 11.436 65.707 10.481 67.897 10.45 67.897 9.48 65.722 8.525 66.27 9.996 68.179 9.996 68.21 7.695 67.913 7.695 68.977 10.011 68.68 10.011 68.711 8.525 70.62 9.416 71.183 10.434 68.977 10.465 68.977 11.404 71.167 12.39 70.604 10.888 68.726 10.888 68.695 13.25 68.977 13.25 67.913 10.888 68.226 10.888 68.195"></polygon>
  <polygon fill="#0bceb2" points="5.83 19.874 4.974 20.973 5.488 21.298 6.074 20.027 6.092 20.027 6.632 21.289 7.2 20.964 6.335 19.883 6.335 19.865 7.695 20.027 7.695 19.415 6.335 19.595 6.335 19.577 7.191 18.451 6.651 18.144 6.101 19.405 6.083 19.405 5.524 18.153 4.974 18.468 5.822 19.568 5.822 19.586 4.497 19.415 4.497 20.027 5.83 19.856 5.83 19.874"></polygon>
  <polygon fill="#0bceb2" points="160.029 14.705 160.029 13.661 157.712 13.968 157.712 13.937 159.17 12.019 158.249 11.498 157.313 13.646 157.282 13.646 156.331 11.512 155.394 12.05 156.837 13.922 156.837 13.953 154.581 13.661 154.581 14.705 156.852 14.413 156.852 14.444 155.394 16.316 156.269 16.869 157.267 14.705 157.297 14.705 158.218 16.853 159.185 16.301 157.712 14.459 157.712 14.428 160.029 14.705"></polygon>
  <polygon fill="#0bceb2" points="114.398 4.921 115.656 3.267 114.862 2.817 114.054 4.67 114.027 4.67 113.207 2.83 112.399 3.293 113.644 4.908 113.644 4.935 111.697 4.683 111.697 5.583 113.657 5.332 113.657 5.359 112.399 6.973 113.153 7.45 114.014 5.583 114.04 5.583 114.835 7.437 115.669 6.96 114.398 5.371 114.398 5.345 116.397 5.583 116.397 4.683 114.398 4.948 114.398 4.921"></polygon>
</svg>
