<svg xmlns="http://www.w3.org/2000/svg" viewBox="0 0 64 64" id="love-chat">
  <path fill="#ccc" d="M32,8.16C14.36,8.16,0,18.21,0,30.57S14.36,53,32,53a44.28,44.28,0,0,0,9.49-1A16.84,16.84,0,0,0,54,57.72h0a14.92,14.92,0,0,0,1.5-.07,1.86,1.86,0,0,0,1.65-1.42,1.89,1.89,0,0,0-.8-2,8.86,8.86,0,0,1-3.78-6.45C59.84,43.48,64,37.24,64,30.57,64,18.21,49.64,8.16,32,8.16Z"></path>
  <path fill="#fff" d="M32,6.28c-17.64,0-32,10-32,22.4S14.36,51.09,32,51.09a44.91,44.91,0,0,0,9.49-1A16.84,16.84,0,0,0,54,55.84h0a14.92,14.92,0,0,0,1.5-.07,1.88,1.88,0,0,0,.85-3.45,8.88,8.88,0,0,1-3.78-6.46C59.84,41.6,64,35.36,64,28.68,64,16.33,49.64,6.28,32,6.28Z"></path>
  <path fill="#010101" d="M51.17,44.49c7-3.93,10.95-9.69,10.95-15.8C62.12,17.37,48.61,8.16,32,8.16S1.88,17.37,1.88,28.69,15.39,49.21,32,49.21a42.86,42.86,0,0,0,9.59-1.08.78.78,0,0,1,.22,0,1,1,0,0,1,.72.33c4.66,5.21,9.71,5.76,12.78,5.47a10.56,10.56,0,0,1-4.63-8.6A1,1,0,0,1,51.17,44.49Zm1.17-16h1.82a1,1,0,0,1,0,1.94H52.34a1,1,0,0,1,0-1.94ZM11.66,30.42H9.84a1,1,0,0,1,0-1.94h1.82a1,1,0,1,1,0,1.94Zm8.5,0H18.34a1,1,0,0,1,0-1.94h1.82a1,1,0,0,1,0,1.94Zm20.53-2.61-8,8a1,1,0,0,1-1.38,0l-8-8a5.29,5.29,0,1,1,7.51-7.46L32,21.52l1.22-1.21a5.29,5.29,0,0,1,7.46,7.5Zm5,2.61H43.84a1,1,0,0,1,0-1.94h1.82a1,1,0,0,1,0,1.94Z"></path>
  <path fill="#010101" d="M34.6,21.69l-1.91,1.9a1,1,0,0,1-1.38,0l-1.9-1.91a3.34,3.34,0,0,0-4.73,0,3.36,3.36,0,0,0,0,4.74L32,33.74l7.35-7.3a3.35,3.35,0,1,0-4.72-4.75Z"></path>
</svg>
