<svg xmlns="http://www.w3.org/2000/svg" enable-background="new 0 0 64 64" viewBox="0 0 64 64" id="present">
  <g>
    <g>
      <path fill="#98ddcb" d="M35.52,22.32c0,0-0.96-0.34-2.23-0.3c-3.35,0.11-5.94,2.43-6.46,5.74c-1.18-0.89-0.56-2.21-0.01-3.08
			c0.55-0.88,1.19-1.7,2.08-2.24c0.5-0.3,1.33-0.51,1.28-1.1c-0.03-0.35-0.26-0.66-0.55-0.86c-0.79-0.53-2.98-1.2-4.73-0.97
			c-2.07,0.27-3.77,0.92-4.97,2.62c-0.41,0.59-1.04,1.46-0.94,2.18c0.21,1.48,1.49,1.86,2.64,2.15c1.78,0.45,4.59,0.48,5.42,1.51
			c-1.59,1.14-3.96,2.56-6.59,4.96c0,0-0.16,1.28-0.42,3.83c-0.36,3.55-0.33,5-0.33,9.29c0,1.06,0.09,3.68,0.1,4.06
			c0.04,1.1,4.06,2.16,4.56,1.88c0.06-4.32-0.37-8.6-0.07-12.9c0.08-1.2-0.58-3.28,0.27-4.13c2.01-1.99,7.17-5.06,7.55-5.27
			c0.47-0.25,0.51-0.94,0.62-1.45c0.22-1.03,0.75-1.99,1.49-2.74c1.31-1.34,3.04-2.47,6.78-1.35c-4.17-0.12-5.68,1.87-6.7,3.75
			c-0.22,0.41-1.79,1.31-1.86,1.68c-0.02,0.13,1.05,1.29,1.91,1.72c1.85,0.93,4.35,1.61,6.42,1.63c0.58,5.45,0.6,11.32,0.25,16.83
			c-0.03,0.54,0.43,0.61,0.94,0.4c1.22-0.51,2.8-2.08,3-2.43c0.28-0.51,0.24-0.9,0.27-1.48c0.15-3.04,0.3-6.09,0.33-9.14
			c0.02-2.31-0.04-4.62-0.1-6.93c-0.04-1.38-0.09-2.84-0.85-3.99c-1.03-1.57-3.03-2.13-4.86-2.56c2.4-1.29,4.23-2.51,6.24-4.35
			c0.3-0.59-1.71-1.36-2.91-1.41c-0.9-0.04-1.74,0.56-2.47,1.04C39.01,19.95,35.52,22.32,35.52,22.32z"></path>
      <path d="M52.94 22.74c-.01-.08-.05-.15-.12-.19-2.14-1.35-4.65-2.53-7.17-3.53 0 0 0 0-.01 0-1.54-.61-3.07-1.15-4.53-1.63-.01 0-.02-.01-.03-.01-4.72-1.54-8.56-2.36-8.63-2.37-.05-.01-.1 0-.15.01-2.38.98-6.09 3.08-6.68 3.41-.46-.1-.94-.17-1.44-.18-1.78-.04-3.41.67-4.49 1.93-.7.81-1.11 1.78-1.18 2.75-.03.01-.06 0-.09.02-4.15 2.89-7.07 5.33-7.1 5.36-.05.04-.08.11-.09.18-.27 4.75 0 9.32 0 9.37.01.09.06.16.13.2.57.31 1.2.62 1.86.93v8.56c0 .1.06.19.14.23 7.89 3.7 19.53 7.44 19.65 7.48.02.01.05.01.08.01.04 0 .07-.01.11-.02 4.44-2.08 8.63-5.1 11.91-7.81.02-.01.03-.02.04-.04 4-3.31 6.65-6.14 6.7-6.2.04-.04.06-.1.07-.16.09-2.86.02-6.91 0-7.63.58-.47.92-.75.93-.76.05-.04.08-.1.09-.16C53.43 28.13 52.94 22.79 52.94 22.74zM44.74 47.09c-1.24 1.02-2.61 2.08-4.07 3.12.51-8.07-.12-14.71-.4-17.09 1.41-.1 2.87-.51 3.91-1.34.13-.1.23-.23.34-.34C44.81 33.16 45.69 39.42 44.74 47.09zM33.15 45.02c-.04-.01-3.67-.85-8.76-2.42-.1-.03-.19.02-.25.1-.01-2.45.09-5.09.4-7.5 2.91 1.06 5.56 1.82 8.31 2.39v4.6c0 .14.11.25.25.25s.25-.11.25-.25v-4.81c0-.12-.08-.22-.2-.25-2.75-.56-5.39-1.31-8.29-2.36.9-.85 3.43-3.08 6.89-4.95.19.02.33.04.41.05.41.33 2.78 2.22 5.37 3.01.56.17 1.23.26 1.93.27-1.15.8-2.55 1.74-3.54 2.36-.12.07-.15.23-.08.34.05.08.13.12.21.12.05 0 .09-.01.13-.04 1.01-.64 2.47-1.61 3.63-2.42.17 1.49.42 4.23.51 7.74C37.93 42.82 33.61 45.01 33.15 45.02zM19.46 32.62c2.1-1.99 5.91-4.5 6.84-5.11.88 1.31 3.17 1.92 4.64 2.19-4.1 2.32-6.78 5.05-6.81 5.08-.04.04-.06.09-.07.14-.93 6.88-.11 15.73-.01 16.69-1.64-.61-3.38-1.27-5.09-1.96C18.32 41.27 19.33 33.51 19.46 32.62zM19.17 24.3c0-.01 0-.02-.01-.02-.03-.08-.05-.17-.08-.25-.03-.32.07-.8.4-1.21.35-.44 1.19-1.08 2.82-.4 2.18.9 3.53 2.44 3.87 2.85-.02.04-.04.08-.06.13-.22.55-.25 1.06-.11 1.53C23.8 26.97 19.97 26.17 19.17 24.3zM33.23 21.32c2.46.64 2.86 2.37 2.9 2.55-.09.04-.18.07-.27.11-2.97 1.56-3.67 4.5-3.82 5.37-.93-.11-4.41-.63-5.37-2.19-.29-.47-.32-1-.08-1.59C27.49 23.31 31 20.74 33.23 21.32zM39.57 32.65c-.7 0-1.36-.08-1.9-.25-2.33-.71-4.54-2.39-5.11-2.84.3-.55 1.46-2.23 4.32-1.24C39.78 29.32 39.67 31.9 39.57 32.65zM43.87 31.39c-.96.76-2.33 1.15-3.66 1.24-.04-.28-.06-.45-.06-.46-.01-.04-.04-.07-.06-.1-.01-1.21-.43-3.32-3.05-4.23-2.2-.76-3.53-.07-4.27.64.38-1.18 1.27-2.99 3.31-4.06 1.66-.87 4.14-.7 6.17.43 1.69.94 2.72 2.33 2.83 3.82C45.17 29.77 44.76 30.69 43.87 31.39zM39.46 23.43c-1.01-.12-2-.05-2.87.24-.09-.35-.44-1.32-1.53-2.07.81-.56 3.15-2.13 5.99-3.7 1.29.42 2.64.9 4 1.43C42.38 21.07 39.5 23.4 39.46 23.43 39.46 23.42 39.46 23.43 39.46 23.43zM32.42 15.52c.54.12 3.87.86 7.98 2.17-2.93 1.65-5.27 3.26-5.81 3.63-.35-.19-.75-.35-1.23-.48-.88-.23-1.87-.05-2.84.37-.37-.38-1.96-1.88-4.2-2.58C27.5 17.96 30.41 16.36 32.42 15.52zM20.07 20.51c.98-1.15 2.48-1.79 4.1-1.75 2.88.06 5.19 2.04 5.86 2.67-1.51.79-2.89 2.11-3.61 3.35-.51-.6-1.84-1.97-3.93-2.83-2.01-.83-3.05.11-3.4.55 0 0 0 0 0 0C19.24 21.8 19.56 21.11 20.07 20.51zM11.72 28.63c.49-.41 3.14-2.57 6.78-5.12.01.15.02.31.05.46.01.05.03.1.04.15.01.05.02.08.04.13.68 2.27 4.57 3.1 6.89 3.17-1.41.93-4.55 3.08-6.41 4.84-.64-.3-1.3-.59-1.92-.86-1.14-.51-2.13-.94-2.73-1.28-.12-.07-.27-.02-.34.1-.07.12-.02.27.1.34.62.34 1.61.78 2.77 1.29.63.28 1.29.57 1.95.88-.11.86-.48 3.87-.63 7.88-.03-.03-.05-.07-.09-.08-2.59-.96-4.77-1.92-6.5-2.84C11.68 36.9 11.49 32.85 11.72 28.63zM13.72 39.22c1.29.59 2.72 1.18 4.33 1.78.03.01.06.02.09.02.06 0 .12-.03.16-.07-.08 2.55-.08 5.48.14 8.5-1.63-.67-3.24-1.36-4.72-2.04V39.22zM33.07 54.75c-.62-.2-4.21-1.37-8.55-2.97.02-.04.04-.08.04-.13-.01-.06-.4-3.97-.43-8.67.03.04.06.07.11.09 4.4 1.35 7.7 2.17 8.6 2.38v5.82c0 .14.11.25.25.25s.25-.11.25-.25v-5.81c1.18-.31 4.98-2.35 7-3.63.05 2.58.02 5.56-.19 8.74C37.95 52.12 35.55 53.58 33.07 54.75zM51.42 40.93c-.41.43-2.73 2.85-6.13 5.7.36-3.14.42-6.04.35-8.47.03-.01.07-.01.09-.03 2.41-1.75 4.42-3.32 5.69-4.33C51.45 35.06 51.49 38.43 51.42 40.93zM52.45 32.33c-.48.4-3.2 2.63-6.83 5.27-.15-3.67-.58-6.17-.67-6.65.39-.55.59-1.18.62-1.86.01 0 .01.01.02.01.05 0 .11-.02.16-.05 1.41-1.13 2.85-2.34 4.29-3.58.1-.09.12-.25.02-.35-.09-.1-.25-.12-.35-.02-1.38 1.2-2.77 2.35-4.13 3.45-.16-1.62-1.27-3.12-3.07-4.12-.76-.42-1.57-.71-2.37-.88.88-.7 3.3-2.58 5.49-3.99 2.4.96 4.79 2.08 6.83 3.36C52.52 23.72 52.88 28.41 52.45 32.33zM30.8 58.33c.11 0 .21-.07.24-.18.04-.13-.04-.27-.17-.31-.07-.02-7.05-2.01-11.33-4.05-.12-.06-.27-.01-.33.12s-.01.27.12.33c4.32 2.06 11.33 4.06 11.4 4.08C30.75 58.33 30.78 58.33 30.8 58.33zM12.96 51.08c-.06.12-.01.27.11.33 0 0 .82.4 2.28 1.07.03.02.07.02.1.02.09 0 .19-.05.23-.15.06-.12 0-.27-.12-.33-1.45-.66-2.26-1.06-2.26-1.06C13.17 50.91 13.02 50.96 12.96 51.08zM36.2 58.33c.04 0 .08-.01.12-.03 9.75-5.41 16.03-12.74 16.09-12.81.09-.11.08-.26-.03-.35-.1-.09-.26-.08-.35.03-.06.07-6.29 7.33-15.95 12.7-.12.07-.16.22-.1.34C36.03 58.28 36.12 58.33 36.2 58.33zM40.62 13.96c.01 0 .02 0 .03 0 .14-.01.24-.14.22-.28l-.36-3.4c-.01-.14-.13-.23-.28-.22-.14.01-.24.14-.22.28l.36 3.4C40.38 13.86 40.49 13.96 40.62 13.96zM46.3 13.96c.1 0 .2-.06.23-.16l1.43-3.84c.05-.13-.02-.27-.15-.32-.13-.05-.27.02-.32.15l-1.43 3.84c-.05.13.02.27.15.32C46.24 13.95 46.27 13.96 46.3 13.96zM50 16.97l2.36-1.51c.12-.07.15-.23.08-.35s-.23-.15-.35-.08l-2.36 1.51c-.12.07-.15.23-.08.35.05.07.13.12.21.12C49.91 17.01 49.96 17 50 16.97zM24.87 14.69v-3.4c0-.14-.11-.25-.25-.25s-.25.11-.25.25v3.4c0 .14.11.25.25.25S24.87 14.83 24.87 14.69zM19.01 15.88c.04 0 .08-.01.12-.03.12-.07.16-.22.09-.34l-1.91-3.33c-.07-.12-.22-.16-.34-.09-.12.07-.16.22-.09.34l1.91 3.33C18.84 15.83 18.92 15.88 19.01 15.88zM16 19.47c.1 0 .19-.06.23-.15.05-.13 0-.27-.13-.33l-2.57-1.1c-.13-.05-.27 0-.33.13-.05.13 0 .27.13.33l2.57 1.1C15.93 19.46 15.96 19.47 16 19.47z"></path>
    </g>
  </g>
</svg>
